<?xml version="1.0" encoding="UTF-8"?>
<svg id="Capa_1" data-name="Capa 1" xmlns="http://www.w3.org/2000/svg" viewBox="0 0 28.11 28.11">
  <defs>
    <style>
      .cls-1 {
        fill: #fff;
      }

      .cls-2 {
        fill: #58585a;
      }
    </style>
  </defs>
  <circle class="cls-2" cx="14.06" cy="14.06" r="14.06" transform="translate(-5.8 14.92) rotate(-47.49)"/>
  <path class="cls-1" d="M17.19,13.66h3.58s.11.04.13.05c.13.06.19.18.21.31v4.84c-.06,1.18-.95,2.13-2.13,2.25-3.38.03-6.76,0-10.15.01-1.01-.07-1.8-.86-1.86-1.87V7.36c.02-.21.17-.36.37-.37h9.46c.14-.01.37.17.37.32v6.36ZM12.49,9.27c-.02-.2.05-.45-.07-.62s-.36-.22-.54-.1c-.24.16-.17.47-.18.72-.58.18-.94.79-.83,1.4.09.51.52.93,1.03,1.01.24.04.45-.01.59.24.25.43-.25.89-.65.62-.37-.25-.05-.65-.4-.87-.2-.13-.48-.03-.57.19-.05.13-.04.36-.01.51.07.44.4.82.83.97.02.18-.03.38.04.55.1.23.41.3.6.14.21-.17.13-.46.15-.69.63-.21.98-.86.81-1.51-.12-.44-.48-.79-.93-.89-.23-.05-.46,0-.63-.19-.33-.38.12-.95.58-.7.33.18.15.46.33.66.22.25.64.12.68-.2.06-.52-.35-1.11-.85-1.24ZM9.2,15.63c-.45.06-.47.74.06.79h5.69c.5-.05.52-.72.03-.79h-5.77ZM9.17,17.02c-.42.11-.41.68.01.77h5.82c.44-.09.43-.7-.01-.78h-5.82ZM9.2,18.4c-.48.09-.43.76.06.79h5.67c.52-.04.54-.71.04-.79h-5.77Z"/>
</svg>