<?xml version="1.0" encoding="UTF-8"?>
<svg id="Capa_1" data-name="Capa 1" xmlns="http://www.w3.org/2000/svg" viewBox="0 0 28.11 28.22">
  <defs>
    <style>
      .cls-1 {
        fill: #fff;
      }

      .cls-2 {
        fill: #58585a;
      }
    </style>
  </defs>
  <circle class="cls-2" cx="14.06" cy="14.06" r="14.06" transform="translate(-5.8 14.92) rotate(-47.49)"/>
  <path class="cls-1" d="M9.21,20.61c-.38,0-.69-.09-.91-.26-.22-.17-.33-.41-.33-.7,0-.47.14-.96.42-1.47.28-.51.68-.99,1.21-1.44.53-.45,1.17-.82,1.92-1.1.75-.28,1.59-.42,2.53-.42s1.78.14,2.53.42c.75.28,1.39.65,1.92,1.1s.93.93,1.21,1.44c.28.51.42,1,.42,1.47,0,.3-.11.53-.33.7-.22.17-.52.26-.91.26h-9.69ZM14.06,13.92c-.52,0-.99-.14-1.43-.42-.44-.28-.79-.66-1.06-1.14-.27-.48-.4-1.02-.4-1.61s.13-1.12.4-1.59c.27-.47.62-.84,1.06-1.12s.92-.41,1.43-.41.99.13,1.43.4c.44.27.79.64,1.06,1.11.27.47.4,1,.4,1.59s-.13,1.14-.4,1.62c-.27.48-.62.86-1.06,1.15-.44.28-.92.42-1.43.42Z"/>
</svg>