<?xml version="1.0" encoding="UTF-8"?>
<svg id="Capa_1" data-name="Capa 1" xmlns="http://www.w3.org/2000/svg" viewBox="0 0 28.11 28.11">
  <defs>
    <style>
      .cls-1 {
        fill: #fff;
      }

      .cls-2 {
        fill: #58585a;
      }
    </style>
  </defs>
  <circle class="cls-2" cx="14.06" cy="14.06" r="14.06" transform="translate(-5.8 14.92) rotate(-47.49)"/>
  <path class="cls-1" d="M5.33,13.65c-.19,0-.34-.06-.46-.18-.11-.12-.17-.25-.17-.4,0-.19.08-.34.23-.47l7.53-6.32c.27-.23.56-.35.87-.35s.6.12.87.35l7.53,6.32c.15.12.23.28.23.47,0,.15-.05.28-.16.4s-.26.18-.46.18c-.1,0-.19-.02-.28-.07-.08-.05-.16-.1-.23-.16l-7.24-6.08c-.08-.07-.16-.1-.25-.1s-.18.03-.25.1l-7.23,6.08c-.08.06-.16.11-.24.16-.08.05-.18.07-.28.07ZM8.45,21.13c-.52,0-.92-.14-1.2-.42-.29-.28-.43-.67-.43-1.18v-8l1.16-.78v8.5c0,.24.06.42.18.54s.3.18.53.18h9.28c.23,0,.41-.06.53-.18.12-.12.18-.3.18-.54v-8.5l1.16.79v8c0,.5-.14.9-.43,1.18s-.68.42-1.2.42h-9.77ZM11.24,20.38v-4.67c0-.16.05-.3.15-.4s.24-.15.4-.15h3.08c.17,0,.3.05.4.15.1.1.15.23.15.4v4.67h-4.19ZM18.04,9.81v-1.73c0-.16.05-.29.14-.38.1-.09.22-.14.38-.14h.77c.16,0,.29.05.38.14s.14.22.14.38v3.26l-1.81-1.53Z"/>
</svg>