<?xml version="1.0" encoding="UTF-8"?>
<svg id="Capa_1" data-name="Capa 1" xmlns="http://www.w3.org/2000/svg" viewBox="0 0 28.11 28.11">
  <defs>
    <style>
      .cls-1 {
        fill: #fff;
      }

      .cls-2 {
        fill: #58585a;
      }
    </style>
  </defs>
  <circle class="cls-2" cx="14.06" cy="14.06" r="14.06" transform="translate(-5.8 14.92) rotate(-47.49)"/>
  <path class="cls-1" d="M21.26,14.91c1.81.28,2.67,2.44,1.51,3.89-.97,1.21-2.82,1.22-3.79,0-1.15-1.45-.3-3.61,1.51-3.89,0-.58-.18-1.16-.48-1.65-.41-.69-1.11-1.17-1.67-1.73-.02-.01-.02-.02-.04,0-.05.06-.12.26-.17.35-.75,1.38-2.13,2.3-3.71,2.43v2.91c1.21.17,2.2,1.07,2.46,2.26.58,2.63-2.45,4.58-4.59,2.94-1.97-1.5-1.27-4.6,1.13-5.15.05-.01.24-.03.25-.06v-2.9c-1.5-.12-2.86-.98-3.61-2.27-.1-.17-.18-.36-.28-.53l-1.15,1.06c-.61.62-1.01,1.46-1.02,2.34,1.76.28,2.62,2.32,1.58,3.8-.98,1.39-3.11,1.32-4.01-.12-.93-1.47-.05-3.43,1.66-3.68.03-1.02.43-1.99,1.11-2.74l1.57-1.46c-.26-1.25-.01-2.55.71-3.61,1.56-2.28,4.79-2.69,6.87-.86,1.25,1.1,1.81,2.81,1.47,4.45l1.57,1.48c.69.75,1.08,1.72,1.11,2.74ZM13.73,5.98c-2.83.2-4.36,3.5-2.76,5.84,1.72,2.51,5.61,2,6.61-.86.91-2.6-1.13-5.17-3.85-4.98ZM7.2,15.5c-1.42.03-2.24,1.63-1.43,2.81.75,1.09,2.4.99,3.03-.17.65-1.19-.24-2.66-1.59-2.64ZM20.85,15.5c-1.33.02-2.17,1.48-1.53,2.65s2.4,1.23,3.09.05c.7-1.2-.18-2.72-1.56-2.7ZM13.84,17.99c-1.42.12-2.3,1.67-1.74,2.97.61,1.43,2.55,1.75,3.57.56,1.27-1.47.11-3.7-1.83-3.54Z"/>
  <path class="cls-1" d="M14.52,6.6v.63c.76.08,1.37.64,1.37,1.44l-.97.03c-.06-.3-.2-.56-.51-.65-.37-.1-1.26-.07-1.22.48.02.31.49.43.74.5.86.25,2,.35,2.1,1.49.09.96-.58,1.62-1.51,1.68v.63h-.93v-.62l-.03-.02c-.86-.09-1.41-.79-1.48-1.62l.95-.09c.05.31.19.63.48.79.42.24,1.31.2,1.51-.33.29-.76-.95-.85-1.43-.99-.61-.18-1.25-.51-1.32-1.23-.08-.84.53-1.41,1.33-1.5v-.63h.93Z"/>
  <path class="cls-1" d="M14.32,18.4s.04.32.06.38.29.13.36.17l.34-.23.36.36s0,.02,0,.03c-.03.07-.19.21-.22.29-.03.09.12.27.12.37l.41.06v.55s-.38.07-.38.07l-.16.35.23.34-.39.39-.35-.24-.32.14-.07.4h-.53c-.06-.08-.04-.37-.09-.41-.04-.03-.27-.08-.33-.14l-.34.24-.38-.38v-.04s.22-.33.22-.33l-.14-.33-.39-.06v-.56s.41-.06.41-.06l.13-.35-.23-.34s.33-.35.36-.36c.02-.01.03-.01.05,0,.06.03.26.22.31.22l.34-.15.07-.4h.54ZM13.98,19.46c-.84.09-.73,1.41.17,1.31.81-.1.7-1.4-.17-1.31Z"/>
  <path class="cls-1" d="M7.46,15.86l.06.36.29.11c.05-.03.25-.2.29-.19.02,0,.28.27.29.29.03.07-.16.23-.19.31l.13.28.33.06v.44s-.35.08-.35.08l-.11.28.19.29-.31.32c-.06-.05-.23-.21-.3-.19s-.18.1-.26.11l-.06.34h-.44s-.08-.35-.08-.35l-.28-.1-.27.2c-.05-.08-.27-.24-.31-.31-.03-.06.14-.2.16-.27.03-.08-.09-.22-.1-.31l-.34-.07v-.44s.3-.02.35-.08c0-.01.1-.26.1-.28l-.18-.28.29-.29c.06-.03.24.17.31.19l.27-.12.06-.34h.45ZM7.17,16.74c-.69.08-.61,1.17.14,1.09.7-.08.59-1.17-.14-1.09Z"/>
  <path class="cls-1" d="M21.1,15.86l.07.35.28.11.29-.19s.28.27.29.29c.04.08-.19.24-.17.33,0,.02.1.26.12.26l.33.06v.44s-.34.08-.34.08l-.11.28.18.29-.31.32c-.07-.05-.22-.21-.3-.19-.06,0-.18.1-.26.1l-.07.34h-.44s-.08-.34-.08-.34l-.28-.11-.27.2c-.05-.08-.27-.23-.31-.31-.01-.02-.01-.03,0-.05.02-.05.19-.21.19-.26l-.12-.27-.34-.07v-.44s.35-.07.35-.07l.11-.29c-.03-.06-.21-.24-.19-.29,0-.02.27-.28.29-.29.02-.01.03-.01.05,0,.05.02.22.19.26.19l.28-.11.06-.36h.45ZM20.81,16.74c-.7.09-.59,1.17.14,1.09.72-.08.57-1.18-.14-1.09Z"/>
</svg>