<?xml version="1.0" encoding="UTF-8"?>
<svg id="Capa_1" data-name="Capa 1" xmlns="http://www.w3.org/2000/svg" viewBox="0 0 28.11 29.84">
  <defs>
    <style>
      .cls-1 {
        fill: #fff;
      }

      .cls-2 {
        fill: #ff7400;
      }
    </style>
  </defs>
  <circle class="cls-2" cx="14.06" cy="14.06" r="14.06" transform="translate(-5.8 14.92) rotate(-47.49)"/>
  <path class="cls-1" d="M10.3,22.76c-.75,0-1.31-.19-1.69-.57-.37-.38-.56-.95-.56-1.71v-10.99c0-.75.19-1.32.56-1.7.38-.38.94-.57,1.69-.57h7.7c.75,0,1.31.19,1.68.57s.56.95.56,1.71v7.84c-.15-.23-.33-.44-.53-.63s-.41-.35-.64-.5v-6.7c0-.36-.1-.63-.3-.83-.2-.2-.48-.29-.84-.29h-7.58c-.38,0-.66.1-.85.29-.19.2-.29.47-.29.83v10.96c0,.36.1.63.29.83.19.2.47.29.85.29h3.36c.15.23.31.45.5.64.19.2.4.37.63.52h-4.56ZM11.4,11.34c-.13,0-.24-.04-.32-.13-.08-.09-.13-.2-.13-.32s.04-.22.13-.31c.08-.08.19-.13.32-.13h5.5c.13,0,.23.04.32.13.08.08.13.19.13.31s-.04.23-.13.32c-.08.09-.19.13-.32.13h-5.5ZM11.4,13.86c-.13,0-.24-.04-.32-.13-.08-.09-.13-.19-.13-.32s.04-.23.13-.32c.08-.08.19-.13.32-.13h5.5c.13,0,.23.04.32.13.08.08.13.19.13.32s-.04.23-.13.32c-.08.09-.19.13-.32.13h-5.5ZM16.96,22.39c-.53,0-1.02-.13-1.46-.4-.44-.26-.8-.62-1.06-1.06-.26-.44-.4-.93-.4-1.47s.13-1.03.4-1.47c.26-.44.62-.79,1.06-1.06.44-.26.93-.4,1.46-.4s1.03.13,1.47.4c.44.26.79.62,1.06,1.06s.39.93.39,1.47-.13,1.03-.39,1.47-.62.8-1.06,1.06c-.44.26-.93.4-1.47.4ZM16.96,21.42c.36,0,.68-.09.98-.27.29-.18.53-.42.71-.71.18-.29.26-.62.26-.98s-.09-.68-.26-.97c-.18-.29-.41-.53-.71-.71-.29-.18-.62-.26-.98-.26s-.68.09-.97.26c-.29.18-.53.41-.71.71-.18.29-.27.62-.27.97s.09.68.27.98c.18.29.42.53.71.71.29.18.62.27.97.27ZM20.79,23.93c-.18,0-.35-.07-.5-.22l-1.89-1.88.88-.85,1.89,1.91c.06.06.11.12.15.2.04.08.06.15.06.24,0,.18-.06.32-.17.44-.11.11-.25.17-.42.17Z"/>
</svg>