<?xml version="1.0" encoding="UTF-8"?>
<svg id="Capa_1" data-name="Capa 1" xmlns="http://www.w3.org/2000/svg" viewBox="0 0 28.11 28.97">
  <defs>
    <style>
      .cls-1 {
        fill: #fff;
      }

      .cls-2 {
        fill: #ff7400;
      }
    </style>
  </defs>
  <circle class="cls-2" cx="14.06" cy="14.06" r="14.06" transform="translate(-5.8 14.92) rotate(-47.49)"/>
  <path class="cls-1" d="M14.06,21.45c-1.02,0-1.98-.19-2.87-.58-.89-.38-1.68-.91-2.36-1.59-.68-.68-1.21-1.46-1.59-2.36-.38-.89-.58-1.85-.58-2.87s.19-1.98.58-2.87c.38-.89.91-1.68,1.59-2.36s1.46-1.21,2.36-1.59,1.85-.57,2.87-.57,1.98.19,2.87.57,1.68.91,2.36,1.59,1.21,1.46,1.59,2.36c.38.89.58,1.85.58,2.87s-.19,1.98-.58,2.87-.91,1.68-1.59,2.36c-.68.68-1.46,1.21-2.36,1.59-.89.38-1.85.58-2.87.58ZM14.06,20.22c.85,0,1.65-.16,2.39-.48.74-.32,1.4-.76,1.96-1.33.57-.57,1.01-1.22,1.33-1.96.32-.74.48-1.54.48-2.39s-.16-1.65-.48-2.39c-.32-.75-.76-1.4-1.33-1.96-.56-.56-1.22-1-1.96-1.32-.74-.32-1.54-.48-2.39-.48s-1.65.16-2.39.48c-.74.32-1.4.76-1.96,1.32-.57.56-1.01,1.22-1.33,1.96-.32.75-.48,1.54-.48,2.39s.16,1.65.48,2.39c.32.74.76,1.4,1.33,1.96.56.57,1.22,1.01,1.96,1.33.74.32,1.54.48,2.39.48ZM14.06,12.75c-.14,0-.28,0-.42,0s-.26.02-.36.04c-.18.03-.28.15-.29.35,0,.09,0,.23,0,.44,0,.21,0,.42.01.65,0,.22.02.41.05.55.01.11.05.3.11.56.06.27.13.55.2.85.07.3.13.57.19.79.05.22.08.35.09.37.04.12.03.22-.04.31-.07.09-.16.13-.27.13-.19,0-.31-.1-.36-.31-.02-.11-.06-.27-.11-.47s-.11-.42-.17-.66-.12-.45-.17-.64-.09-.33-.12-.41c-.04-.13-.08-.21-.11-.25-.04-.04-.08-.07-.14-.07-.05,0-.09.02-.13.07-.03.05-.07.13-.11.26-.03.08-.07.22-.12.41-.05.19-.11.41-.17.64-.06.23-.11.45-.16.66-.05.21-.09.36-.12.47-.07.21-.19.31-.36.31-.12,0-.21-.05-.27-.14s-.08-.2-.05-.31c0-.02.04-.14.09-.37.05-.22.12-.49.19-.79.07-.3.13-.58.19-.85.06-.27.1-.45.12-.56.02-.14.04-.32.05-.55.01-.22.02-.44.02-.65v-.46c0-.19-.08-.31-.24-.34-.04,0-.13-.02-.29-.04-.15-.02-.33-.04-.52-.07-.19-.03-.37-.05-.52-.08-.16-.02-.26-.04-.31-.05-.08-.01-.14-.05-.19-.12-.05-.06-.07-.14-.07-.23s.03-.18.09-.25c.06-.07.13-.1.22-.1.03,0,.06,0,.09.01.03,0,.06.01.08.02.18.03.42.07.71.09.29.03.59.05.91.08.32.02.61.04.88.05.34,0,.69.02,1.04.03s.65.01.88.01.53,0,.87-.01.68-.02,1.01-.03c.27-.01.56-.03.88-.06.32-.02.62-.05.91-.08s.52-.06.71-.09c.03,0,.06-.01.08-.02.03,0,.06-.01.09-.01.08,0,.15.03.22.1.06.07.09.15.09.25,0,.17-.08.29-.25.35-.05.02-.15.04-.31.06-.16.02-.33.04-.53.07-.19.02-.37.05-.52.07-.16.02-.25.03-.29.04-.15.03-.23.15-.23.34,0,.1,0,.25,0,.46,0,.21,0,.43.01.65,0,.22.02.41.05.55.02.11.06.3.12.56.06.27.12.55.19.85.07.3.13.57.19.79s.09.35.09.37c.03.11.01.21-.05.3-.06.09-.15.14-.27.14-.18,0-.3-.1-.36-.31-.02-.11-.06-.27-.11-.47s-.11-.42-.17-.66c-.06-.23-.12-.45-.17-.64s-.09-.33-.12-.41c-.04-.12-.08-.21-.11-.26-.04-.05-.08-.07-.14-.07-.05,0-.1.02-.13.07-.03.04-.07.13-.12.26-.03.08-.07.22-.12.41-.05.19-.11.41-.16.64s-.11.45-.16.66c-.05.21-.09.36-.12.47-.05.21-.17.31-.36.31-.12,0-.21-.05-.27-.14-.06-.09-.08-.2-.04-.31,0-.02.03-.14.09-.37.05-.22.12-.49.19-.79.07-.3.14-.58.2-.85.06-.27.1-.45.12-.56.02-.14.04-.32.05-.55,0-.22.02-.44.02-.65,0-.21,0-.35,0-.44,0-.2-.1-.31-.29-.35-.08-.01-.18-.03-.31-.04-.13,0-.28-.01-.46-.01ZM12.14,11.77c-.21,0-.39-.07-.54-.22-.15-.15-.22-.33-.22-.55s.07-.38.22-.53c.15-.15.33-.22.54-.22s.39.07.54.22.22.32.22.53-.08.4-.22.55-.33.22-.54.22ZM15.95,11.77c-.21,0-.39-.07-.54-.22-.15-.15-.22-.33-.22-.55s.07-.38.22-.53.33-.22.54-.22.39.07.55.22.23.32.23.53-.08.39-.23.54c-.15.15-.33.22-.55.22Z"/>
</svg>