<?xml version="1.0" encoding="UTF-8"?>
<svg id="Capa_1" data-name="Capa 1" xmlns="http://www.w3.org/2000/svg" viewBox="0 0 28.11 28.83">
  <defs>
    <style>
      .cls-1 {
        fill: #fff;
      }

      .cls-2 {
        fill: #ff7400;
      }
    </style>
  </defs>
  <circle class="cls-2" cx="14.06" cy="14.06" r="14.06" transform="translate(-5.8 14.92) rotate(-47.49)"/>
  <path class="cls-1" d="M14.06,21.42c-1.02,0-1.97-.19-2.86-.57s-1.67-.91-2.35-1.59c-.67-.68-1.2-1.46-1.59-2.35s-.57-1.84-.57-2.86.19-1.97.57-2.86c.38-.89.91-1.67,1.59-2.35.67-.67,1.46-1.2,2.35-1.59s1.84-.57,2.86-.57,1.97.19,2.86.57c.89.38,1.67.91,2.35,1.59.67.67,1.2,1.46,1.59,2.35.38.89.57,1.84.57,2.86s-.19,1.97-.57,2.86-.91,1.67-1.59,2.35-1.46,1.21-2.35,1.59c-.89.38-1.84.57-2.86.57ZM13.91,15.6c.19,0,.33-.05.44-.16.11-.1.16-.23.16-.38v-.09c0-.21.06-.39.19-.55.12-.15.32-.31.58-.48.36-.24.66-.48.89-.74.23-.26.35-.61.35-1.06,0-.41-.11-.76-.33-1.04-.22-.28-.51-.5-.87-.64-.36-.14-.75-.22-1.17-.22-.65,0-1.17.13-1.57.38-.4.25-.66.56-.76.9-.02.06-.04.12-.05.18-.01.06-.02.13-.02.19,0,.16.06.29.17.38.11.09.23.13.35.13s.23-.03.32-.08c.09-.06.16-.13.23-.21l.13-.18c.09-.14.2-.27.31-.37.12-.1.24-.18.38-.23.14-.05.29-.08.46-.08.34,0,.61.09.81.26.2.17.31.4.31.69,0,.26-.08.46-.24.62s-.4.36-.73.58c-.26.19-.49.39-.67.61-.18.22-.27.52-.27.89v.09c0,.39.2.59.6.59ZM13.89,17.82c.22,0,.41-.07.57-.22s.24-.33.24-.55-.08-.4-.24-.55c-.16-.15-.35-.23-.57-.23s-.4.08-.56.23c-.16.15-.24.34-.24.55s.08.4.24.55.35.22.56.22Z"/>
</svg>