<?xml version="1.0" encoding="UTF-8"?>
<svg id="Capa_1" data-name="Capa 1" xmlns="http://www.w3.org/2000/svg" viewBox="0 0 28.11 28.96">
  <defs>
    <style>
      .cls-1 {
        fill: #002d57;
      }

      .cls-2 {
        fill: #fff;
      }

      .cls-3 {
        fill: #ff7400;
      }
    </style>
  </defs>
  <circle class="cls-1" cx="14.06" cy="14.06" r="14.06" transform="translate(-5.8 14.92) rotate(-47.49)"/>
  <circle class="cls-3" cx="14.06" cy="14.06" r="14.06" transform="translate(-5.8 14.92) rotate(-47.49)"/>
  <path class="cls-2" d="M14.06,22.56c-.89,0-1.73-.14-2.54-.41-.81-.27-1.55-.66-2.22-1.15-.67-.5-1.26-1.08-1.75-1.76-.5-.67-.88-1.42-1.16-2.22s-.41-1.65-.41-2.54.14-1.73.41-2.54.66-1.55,1.16-2.22c.5-.67,1.08-1.26,1.75-1.75s1.41-.88,2.22-1.15c.81-.27,1.65-.41,2.54-.41s1.73.14,2.54.41c.81.27,1.55.66,2.22,1.15.67.5,1.26,1.08,1.76,1.75.5.67.88,1.42,1.15,2.22.27.81.41,1.65.41,2.54s-.14,1.73-.41,2.54c-.27.81-.66,1.55-1.15,2.22s-1.08,1.26-1.76,1.76c-.67.5-1.41.88-2.22,1.15-.81.27-1.65.41-2.54.41ZM14.06,19.87c.75,0,1.45-.14,2.1-.42.65-.28,1.22-.67,1.72-1.16s.88-1.07,1.16-1.72c.28-.65.42-1.35.42-2.09s-.14-1.44-.42-2.09-.67-1.22-1.16-1.72-1.07-.88-1.72-1.16c-.65-.28-1.35-.42-2.1-.42s-1.44.14-2.09.42-1.22.67-1.72,1.16-.88,1.07-1.16,1.72-.42,1.35-.42,2.09.14,1.45.42,2.09c.28.65.67,1.22,1.16,1.72s1.07.88,1.72,1.16c.65.28,1.35.42,2.09.42ZM14.06,17.64c-.31,0-.63-.05-.95-.14-.32-.09-.6-.24-.84-.44-.24-.2-.41-.46-.5-.78-.03-.1-.04-.17-.04-.23,0-.12.04-.21.12-.27s.17-.1.27-.1c.1,0,.18.02.24.07.06.05.12.13.16.24.13.35.33.59.59.73.26.14.59.21.97.21.24,0,.48-.03.7-.09s.42-.17.56-.32c.15-.15.22-.36.22-.62,0-.33-.12-.56-.38-.71-.25-.14-.54-.26-.86-.33l-.69-.17c-.29-.07-.58-.17-.85-.29-.27-.13-.5-.3-.68-.53-.18-.22-.26-.52-.26-.88s.1-.69.31-.95.48-.46.82-.6.7-.21,1.08-.21c.34,0,.68.07,1.02.2s.62.32.84.56c.23.24.34.51.34.82,0,.12-.04.22-.13.28-.08.06-.17.09-.26.09-.1,0-.18-.03-.25-.08s-.12-.13-.16-.25c-.1-.3-.26-.53-.5-.69-.24-.15-.54-.23-.9-.23-.22,0-.44.04-.66.11s-.4.18-.54.33-.21.33-.21.56c0,.2.05.36.16.49.11.13.25.23.42.31.18.08.37.14.58.19l.69.17c.33.08.63.18.91.31.28.13.51.31.68.54.17.23.26.52.26.88,0,.41-.11.75-.32,1.02-.21.27-.5.47-.85.6s-.73.2-1.14.2ZM14.06,18.5c-.07,0-.12-.02-.17-.07-.05-.05-.07-.1-.07-.17v-7.64c0-.06.02-.12.07-.17.04-.05.1-.07.17-.07s.12.02.17.07c.05.05.07.1.07.17v7.64c0,.06-.02.12-.07.17s-.1.07-.17.07Z"/>
</svg>