<?xml version="1.0" encoding="UTF-8"?>
<svg id="Capa_1" data-name="Capa 1" xmlns="http://www.w3.org/2000/svg" viewBox="0 0 28.11 28.11">
  <defs>
    <style>
      .cls-1 {
        fill: #fff;
      }

      .cls-2 {
        fill: #ff7400;
      }
    </style>
  </defs>
  <circle class="cls-2" cx="14.06" cy="14.06" r="14.06" transform="translate(-5.8 14.92) rotate(-47.49)"/>
  <path class="cls-1" d="M22.63,20.24c-.11-.13-.27-.2-.44-.2h-2.1v-9.27l.5-.49v.88c0,.3.23.56.52.58.16.02.32-.04.44-.15.12-.11.19-.26.19-.42v-2.31c0-.32-.26-.57-.57-.57h-2.3c-.29,0-.53.21-.58.48-.03.17.02.34.13.46.11.13.27.2.44.2h.97l-5.11,5.05-2.51-2.53c-.21-.21-.6-.22-.82,0l-4.91,4.96V7.51c0-.29-.21-.53-.48-.58-.17-.03-.34.02-.46.13-.13.11-.2.27-.2.44v13.12c0,.32.26.57.57.57h16.27c.29,0,.53-.21.58-.48.03-.17-.02-.34-.13-.47ZM8.42,20.04v-3.44l2.82-2.84v6.28h-2.82ZM12.38,20.04v-6.28l1.78,1.79v4.5h-1.78ZM15.31,20.04v-4.5l3.68-3.64v8.14h-3.68ZM6.49,17.97c.21.11.5.07.67-.1l.11-.11v2.28h-.78v-2.07Z"/>
</svg>