<?xml version="1.0" encoding="UTF-8"?>
<svg id="Capa_1" data-name="Capa 1" xmlns="http://www.w3.org/2000/svg" viewBox="0 0 28.11 28.11">
  <defs>
    <style>
      .cls-1 {
        fill: #fff;
      }

      .cls-2 {
        fill: #ff7400;
      }
    </style>
  </defs>
  <path class="cls-1" d="M9.38,21.28c-.76,0-1.32-.19-1.7-.56s-.57-.93-.57-1.68v-7.13c0-.75.19-1.31.57-1.68s.95-.56,1.7-.56h2.21v1.16h-2.2c-.36,0-.64.09-.83.29s-.29.47-.29.85v7.01c0,.38.1.66.29.85s.47.29.83.29h8.25c.36,0,.63-.09.83-.29.2-.19.3-.47.3-.85v-7.01c0-.38-.1-.66-.3-.85-.2-.19-.47-.29-.83-.29h-2.2v-1.16h2.22c.76,0,1.32.19,1.7.56s.57.93.57,1.68v7.13c0,.75-.19,1.31-.57,1.68s-.95.56-1.7.56h-8.29ZM13.52,15.62c-.15,0-.29-.06-.4-.17-.11-.11-.17-.24-.17-.39v-7.35l.04-1.08-.4.43-1.12,1.19c-.1.12-.23.17-.4.17-.15,0-.27-.05-.37-.14s-.15-.22-.15-.36.06-.27.17-.38l2.38-2.3c.08-.07.15-.12.21-.15s.13-.04.21-.04c.08,0,.15.01.21.04.07.03.13.08.21.15l2.38,2.3c.11.12.17.24.17.38s-.05.26-.15.36c-.1.1-.23.14-.38.14-.16,0-.29-.06-.39-.17l-1.11-1.19-.41-.43.04,1.08v7.35c0,.15-.06.28-.17.39-.11.11-.25.17-.41.17Z"/>
  <circle class="cls-2" cx="14.06" cy="14.06" r="14.06" transform="translate(-5.8 14.92) rotate(-47.49)"/>
  <path class="cls-1" d="M6.98,11.24l-.74.25-.36-.97.06-.11,7.42-2.75,7.38,2.72.09.14-.36.97-.74-.25v1.17h2.19s.26.17.28.21l.04,5.16c-.06.28-.36.25-.41.39-.19.57.39,1.42-.66,1.56.16.75-.24.75-.86.68-.56-.05-.24-.54-.37-.56h-2.24c.14.79-.54.52-1.07.55-.19-.06-.07-.56-.1-.73-1.05.06-.52-.98-.69-1.5-.06-.18-.38-.04-.42-.56-.14-1.53.11-3.26,0-4.81-.05-.13.27-.4.34-.4h2.86v-1.6l-5.25-1.96-5.28,1.96v8.01h.74v-2.4h1.6v-2.46h2.4v2.46h.8v-2.46h1.23v4.28c0,.27.43.31.43.34v1.05H6.98v-8.38ZM17.3,15.01c-.34.08-.37.87-.41,1.2-.03.29-.19.97.12,1.1h3.63c.05-.04.13-.1.15-.15.09-.2-.05-1.16-.1-1.44-.07-.42-.01-.67-.51-.72-.91-.08-1.96.06-2.88.02ZM12.03,16.35h-.8v2.46h.8v-2.46ZM17.69,19.19c.13-.83-1.28-.76-1.02-.19.14.31.73.15,1.02.19ZM20.94,18.65c-.54-.21-.93-.07-.97.54.43,0,1.27.14.97-.54Z"/>
</svg>